<svg xmlns="http://www.w3.org/2000/svg" viewBox="0 0 61.93 61.93"><defs><style>.cls-1{fill:#fff;}</style></defs><g id="facebook"><path class="cls-1" d="M41,9.5a31,31,0,1,0,31,31A31,31,0,0,0,41,9.5ZM56.52,48.86H48.67V66.3A26.92,26.92,0,0,1,41,67.43c-.49,0-1,0-1.48-.05V48.86H33v-8.6h6.47V33.81a12.61,12.61,0,0,1,4.08-8.51,12.48,12.48,0,0,1,7.55-3.12h7.11v8.38H52.37A4.33,4.33,0,0,0,50,31.67a4.28,4.28,0,0,0-1.33,2.59v6h9.7C57.75,43.13,57.14,46,56.52,48.86Z" transform="translate(-10 -9.5)"/></g></svg>