<svg xmlns="http://www.w3.org/2000/svg" viewBox="0 0 61.93 61.93"><defs><style>.cls-1{fill:#fff;}</style></defs><g id="Instagram"><circle class="cls-1" cx="31" cy="30.94" r="7.59"/><path class="cls-1" d="M49.81,21.54H31.94a10,10,0,0,0-10,10v18a10.05,10.05,0,0,0,10,10H49.81a10.05,10.05,0,0,0,10-10v-18A10,10,0,0,0,49.81,21.54ZM41,52a11.6,11.6,0,1,1,11.59-11.6A11.59,11.59,0,0,1,41,52ZM53,30.19a1.78,1.78,0,1,1,1.78-1.78A1.78,1.78,0,0,1,53,30.19Z" transform="translate(-10 -9.5)"/><path class="cls-1" d="M41,9.5a31,31,0,1,0,31,31A31,31,0,0,0,41,9.5Zm8.85,54.15H31.94a14,14,0,0,1-14-14v-18a14,14,0,0,1,14-14H49.81a14,14,0,0,1,14,14v18A14,14,0,0,1,49.81,63.65Z" transform="translate(-10 -9.5)"/></g></svg>