<svg id="Layer_5" data-name="Layer 5" xmlns="http://www.w3.org/2000/svg" viewBox="0 0 212.66 213.26"><defs><style>.cls-1{fill:#1d1d1b;}</style></defs><path class="cls-1" d="M108.08,162c-16.59,0-32.23-8.18-44-23-12-15-18.56-35.11-18.56-56.47S52.06,41.08,64,26C75.85,11.18,91.49,3,108.08,3s32.24,8.18,44.05,23c12,15,18.57,35.11,18.57,56.47s-6.59,41.42-18.57,56.47C140.32,153.82,124.68,162,108.08,162Zm0-141c-11,0-21.63,5.77-30,16.24C68.67,49.12,63.47,65.19,63.47,82.5s5.2,33.38,14.65,45.26c8.33,10.47,19,16.24,30,16.24s21.64-5.77,30-16.24c9.45-11.88,14.65-27.95,14.65-45.26s-5.2-33.38-14.65-45.26C129.72,26.77,119.08,21,108.08,21Z" transform="translate(-1.75 -3)"/><path class="cls-1" d="M72.9,148.91A54,54,0,0,0,108,162h.08a54.16,54.16,0,0,0,34.55-12.67c11.33,3.51,29.06,11.59,41.23,29.5a72.29,72.29,0,0,1,9.28,19.43H23.05a73.3,73.3,0,0,1,9.27-19.49c12-17.75,28.89-26.05,40.58-29.86m5.58-20.06c-7.36,1.47-40.22,8.87-61.09,39.86A94,94,0,0,0,1.75,216.26H214.41a92.67,92.67,0,0,0-15.64-47.55c-21.12-31.09-54.54-38-61.62-39.27C136,130.92,125.84,144,108.08,144h0c-18.24,0-28.55-13.77-29.55-15.15Z" transform="translate(-1.75 -3)"/></svg>