<svg id="Layer_4" data-name="Layer 4" xmlns="http://www.w3.org/2000/svg" viewBox="0 0 216 216"><defs><style>.cls-1{fill:#1d1d1b;}</style></defs><path class="cls-1" d="M108.08,12c-13.79,0-26.93,7-37,19.63C60.37,45.1,54.47,63.17,54.47,82.5s5.9,37.4,16.61,50.87C81.15,146,94.29,153,108.08,153s26.94-7,37-19.63C155.8,119.9,161.7,101.83,161.7,82.5s-5.9-37.4-16.61-50.87C135,19,121.88,12,108.08,12Z"/><path class="cls-1" d="M158.17,135.77c-12,17.87-30,29.23-50.09,29.23S70,153.64,58,135.77C24.6,151.15,1.86,181.41,1.75,216.26H214.41C214.31,181.41,191.56,151.15,158.17,135.77Z"/></svg>