<svg xmlns="http://www.w3.org/2000/svg" viewBox="0 0 61.93 61.93"><defs><style>.cls-1{fill:#fff;}</style></defs><g id="twitter"><path class="cls-1" d="M41,9.5a31,31,0,1,0,31,31A31,31,0,0,0,41,9.5ZM61,32.7a9,9,0,0,1-1.18.67c0,1.25.33,14.1-10.08,22.07a26.66,26.66,0,0,1-29,1.78A20,20,0,0,0,34,52.85a9.16,9.16,0,0,1-6.37-2.15,8.78,8.78,0,0,1-2.52-3.77,8.43,8.43,0,0,0,2.08.14,8,8,0,0,0,2.22-.44,9.31,9.31,0,0,1-7.56-9,10.92,10.92,0,0,0,2.45,1,10,10,0,0,0,2,.37,9.63,9.63,0,0,1-3.41-12.59,26.7,26.7,0,0,0,11.18,8.08,26.47,26.47,0,0,0,8.37,1.63,8.84,8.84,0,0,1,.08-5.71,8.68,8.68,0,0,1,14.59-2.74,24.45,24.45,0,0,0,3-.81A23.9,23.9,0,0,0,63,25.74a10.82,10.82,0,0,1-1.71,2.82,11.2,11.2,0,0,1-2,1.85c.26,0,.54,0,.82,0a9.25,9.25,0,0,0,4.15-1.26A10.62,10.62,0,0,1,61,32.7Z" transform="translate(-10 -9.5)"/></g></svg>